<svg width="41" height="39" viewBox="0 0 41 39" fill="none" xmlns="http://www.w3.org/2000/svg">
<g clip-path="url(#clip0_1_37)">
<path d="M7.0657 6.44002C7.43671 6.89666 7.62259 7.47645 7.62259 8.17862C7.62259 8.68039 7.50938 9.15233 7.28372 9.59368C7.05805 10.0358 6.6817 10.3991 6.15464 10.6852C5.62759 10.9713 4.9376 11.1143 4.08467 11.1143H0.050293V0.425644H3.76874C5.04316 0.425644 5.95422 0.707125 6.50117 1.26856C7.04811 1.83076 7.3212 2.49775 7.3212 3.27105C7.3212 3.80266 7.16821 4.27995 6.86223 4.70064C6.55548 5.1221 6.1118 5.41812 5.52967 5.58869C6.18218 5.6996 6.69394 5.98261 7.0657 6.43925V6.44002ZM1.48 1.62959V5.06167H3.76874C5.19386 5.06167 5.90603 4.49948 5.90603 3.37585C5.90603 2.87407 5.74845 2.45797 5.43176 2.12677C5.11583 1.79557 4.56124 1.62959 3.76798 1.62959H1.47923H1.48ZM4.00894 9.90958C4.78155 9.90958 5.34149 9.73442 5.68725 9.38257C6.03378 9.03148 6.20666 8.58478 6.20666 8.04247C6.20666 7.50016 6.03837 7.08176 5.70255 6.75515C5.36597 6.42931 4.85192 6.26562 4.15964 6.26562H1.48V9.90882H4.00894V9.90958Z" fill="#1F1F1F"/>
<path d="M15.7419 7.72656H10.3972C10.4071 8.45933 10.6152 9.04906 11.0221 9.495C11.4283 9.9417 11.9676 10.165 12.6408 10.165C13.1227 10.165 13.5343 10.0427 13.8754 9.79637C14.2166 9.55084 14.4729 9.19669 14.6434 8.73546L15.6976 9.20204C15.4367 9.88509 15.0374 10.4037 14.5004 10.7601C13.9634 11.1166 13.3132 11.2948 12.5505 11.2948C11.4666 11.2948 10.6236 10.9613 10.0216 10.2935C9.41956 9.62656 9.11816 8.67503 9.11816 7.44125C9.11816 6.20748 9.41956 5.18864 10.0216 4.47575C10.6236 3.76364 11.4612 3.4072 12.5352 3.4072C13.6092 3.4072 14.3497 3.69862 14.9066 4.28071C15.4635 4.86279 15.7419 5.7103 15.7419 6.82475V7.72809V7.72656ZM14.4468 6.68783V6.52185C14.4468 5.83956 14.2786 5.3179 13.9427 4.95611C13.6062 4.59508 13.1273 4.4138 12.5054 4.4138C11.8529 4.4138 11.3434 4.61497 10.977 5.01577C10.6106 5.41734 10.4171 5.97418 10.3972 6.68707H14.4468V6.68783Z" fill="#1F1F1F"/>
<path d="M24.2276 11.1135H22.6464L20.373 7.4252L19.0029 8.81042V11.1135H17.7231V0.199997H19.0029V7.29058L22.3748 3.58772H24.0463L21.2917 6.49279L24.2276 11.1143V11.1135Z" fill="#1F1F1F"/>
<path d="M32.2473 11.1135H30.6662L28.3927 7.4252L27.0227 8.81042V11.1135H25.7429V0.199997H27.0227V7.29058L30.3946 3.58772H32.066L29.3114 6.49279L32.2473 11.1143V11.1135Z" fill="#1F1F1F"/>
<path d="M16.3416 19.9832C16.7126 20.4399 16.8985 21.0197 16.8985 21.7218C16.8985 22.2236 16.7853 22.6956 16.5596 23.1369C16.3339 23.579 15.9576 23.9423 15.4305 24.2284C14.9035 24.5145 14.2135 24.6575 13.3605 24.6575H9.32617V13.9696H13.0446C14.319 13.9696 15.2301 14.2511 15.777 14.8125C16.324 15.3747 16.5971 16.0417 16.5971 16.815C16.5971 17.3466 16.4441 17.8239 16.1381 18.2446C15.8314 18.6661 15.3877 18.9621 14.8056 19.1327C15.4581 19.2436 15.9698 19.5266 16.3416 19.9832ZM10.7559 15.1736V18.6057H13.0446C14.4697 18.6057 15.1819 18.0435 15.1819 16.9198C15.1819 16.4181 15.0243 16.002 14.7076 15.6708C14.3917 15.3396 13.8371 15.1736 13.0439 15.1736H10.7551H10.7559ZM13.2848 23.4536C14.0574 23.4536 14.6174 23.2784 14.9631 22.9266C15.3097 22.5755 15.4825 22.1288 15.4825 21.5865C15.4825 21.0442 15.3142 20.6258 14.9784 20.2991C14.6419 19.9733 14.1278 19.8096 13.4355 19.8096H10.7559V23.4528H13.2848V23.4536Z" fill="#1F1F1F"/>
<path d="M32.2351 24.6568H30.654L28.3805 20.9684L27.0105 22.3537V24.6568H25.7307V13.7432H27.0105V20.8338L30.3824 17.131H32.0538L29.2992 20.036L32.2351 24.6575V24.6568Z" fill="#1F1F1F"/>
<path d="M40.4431 33.5265C40.8142 33.9831 41 34.5629 41 35.2651C41 35.7669 40.8868 36.2388 40.6612 36.6802C40.4355 37.1223 40.0591 37.4856 39.5321 37.7717C39.005 38.0577 38.315 38.2008 37.4621 38.2008H33.4277V27.5129H37.1462C38.4206 27.5129 39.3317 27.7944 39.8786 28.3558C40.4256 28.918 40.6986 29.585 40.6986 30.3583C40.6986 30.8899 40.5457 31.3672 40.2397 31.7879C39.9329 32.2093 39.4892 32.5054 38.9071 32.6759C39.5596 32.7868 40.0714 33.0698 40.4431 33.5265ZM34.8574 28.7168V32.1489H37.1462C38.5713 32.1489 39.2835 31.5867 39.2835 30.4631C39.2835 29.9613 39.1259 29.5452 38.8092 29.214C38.4933 28.8828 37.9387 28.7168 37.1454 28.7168H34.8567H34.8574ZM37.3864 36.9968C38.159 36.9968 38.7189 36.8217 39.0647 36.4698C39.4112 36.1187 39.5841 35.672 39.5841 35.1297C39.5841 34.5874 39.4158 34.169 39.08 33.8424C38.7434 33.5165 38.2294 33.3529 37.5371 33.3529H34.8574V36.9961H37.3864V36.9968Z" fill="#1F1F1F"/>
</g>
<defs>
<clipPath id="clip0_1_37">
<rect width="40.9688" height="38" fill="white" transform="translate(0.03125 0.199997)"/>
</clipPath>
</defs>
</svg>
