<svg width="39" height="39" viewBox="0 0 39 39" fill="none" xmlns="http://www.w3.org/2000/svg">
<path d="M0 10.3306V0.241569H1.92575L4.60753 8.0002C4.65508 8.12335 4.68837 8.22756 4.70739 8.31282C4.73592 8.3886 4.75969 8.45965 4.77871 8.52597C4.79773 8.59228 4.812 8.65859 4.82151 8.7249C4.84053 8.78174 4.85479 8.85753 4.8643 8.95226H4.89283C4.91185 8.85753 4.92612 8.78174 4.93563 8.7249C4.94514 8.65859 4.9594 8.59228 4.97842 8.52597C4.99744 8.45965 5.02121 8.3886 5.04974 8.31282C5.07827 8.22756 5.11156 8.12335 5.1496 8.0002L7.83138 0.241569H9.75713V10.3306H8.51609V2.54358C8.51609 2.33517 8.52085 2.1457 8.53036 1.97518C8.53987 1.79519 8.55413 1.62467 8.57315 1.46362H8.51609C8.50658 1.51099 8.49232 1.58204 8.4733 1.67677C8.45428 1.77151 8.43051 1.87571 8.40198 1.98939C8.37345 2.0936 8.34016 2.20254 8.30212 2.31622C8.27359 2.4299 8.24506 2.52937 8.21653 2.61463L5.53475 10.3306H4.22238L1.5406 2.61463C1.51207 2.52937 1.47879 2.4299 1.44075 2.31622C1.41222 2.20254 1.38369 2.0936 1.35516 1.98939C1.32663 1.87571 1.30285 1.77151 1.28383 1.67677C1.26481 1.58204 1.25055 1.51099 1.24104 1.46362H1.18398C1.203 1.62467 1.21726 1.79519 1.22677 1.97518C1.23628 2.1457 1.24104 2.33517 1.24104 2.54358V10.3306H0Z" fill="black"/>
<path d="M19.012 10.3306L17.9707 7.41759H13.8339L12.7925 10.3306H11.3946L15.2318 0.241569H16.5727L20.4099 10.3306H19.012ZM14.2333 6.28079H17.5712L16.159 2.34464C16.1115 2.23096 16.0687 2.11255 16.0306 1.98939C16.0021 1.86624 15.9641 1.72888 15.9165 1.5773H15.888C15.8404 1.72888 15.7976 1.86624 15.7596 1.98939C15.7311 2.11255 15.693 2.23096 15.6455 2.34464L14.2333 6.28079Z" fill="black"/>
<path d="M28.7355 10.3306L27.6941 7.41759H23.5573L22.516 10.3306H21.1181L24.9553 0.241569H26.2962L30.1334 10.3306H28.7355ZM23.9568 6.28079H27.2947L25.8825 2.34464C25.835 2.23096 25.7922 2.11255 25.7541 1.98939C25.7256 1.86624 25.6875 1.72888 25.64 1.5773H25.6115C25.5639 1.72888 25.5211 1.86624 25.4831 1.98939C25.4546 2.11255 25.4165 2.23096 25.369 2.34464L23.9568 6.28079Z" fill="black"/>
<path d="M34.7761 10.5722C34.1294 10.5722 33.5588 10.4917 33.0643 10.3306C32.5793 10.1601 32.1703 9.93275 31.8375 9.64855C31.5047 9.35488 31.2431 9.01384 31.0529 8.62543C30.8723 8.22756 30.7581 7.79652 30.7106 7.33233L32.08 7.13339C32.1276 7.44601 32.2131 7.74442 32.3368 8.02862C32.4604 8.30334 32.6316 8.54965 32.8503 8.76753C33.069 8.97595 33.3401 9.14647 33.6634 9.27909C33.9867 9.40225 34.3719 9.46382 34.8188 9.46382C35.0946 9.46382 35.3657 9.4354 35.6319 9.37856C35.8982 9.31225 36.136 9.21278 36.3452 9.08015C36.5639 8.93805 36.7398 8.75806 36.873 8.54018C37.0061 8.32229 37.0727 8.0523 37.0727 7.73021C37.0727 7.42706 37.0251 7.17602 36.93 6.97708C36.8445 6.76867 36.7161 6.59815 36.5449 6.46552C36.3832 6.32342 36.1835 6.20975 35.9458 6.12449C35.708 6.03923 35.4417 5.96818 35.1469 5.91134L33.6777 5.61293C33.3163 5.53714 32.9787 5.43294 32.6649 5.30031C32.3605 5.15821 32.0943 4.97822 31.866 4.76033C31.6378 4.54245 31.4571 4.27719 31.324 3.96457C31.2003 3.64248 31.1385 3.26355 31.1385 2.82778C31.1385 2.40148 31.2194 2.01781 31.381 1.67677C31.5522 1.32626 31.79 1.02785 32.0943 0.781547C32.3986 0.535242 32.7647 0.345776 33.1927 0.21315C33.6301 0.0710499 34.1199 0 34.6619 0C35.166 0 35.6319 0.0568399 36.0599 0.17052C36.4973 0.284199 36.8825 0.459455 37.2153 0.696287C37.5482 0.93312 37.8192 1.23153 38.0284 1.59151C38.2376 1.9515 38.366 2.3778 38.4136 2.87041L37.0584 3.15461C36.9728 2.47253 36.7351 1.95624 36.3452 1.60572C35.9553 1.24574 35.3847 1.06575 34.6334 1.06575C34.0058 1.06575 33.497 1.21258 33.1071 1.50625C32.7267 1.79045 32.5365 2.18833 32.5365 2.69989C32.5365 3.1925 32.6696 3.57617 32.9359 3.85089C33.2022 4.11615 33.6206 4.31035 34.1912 4.4335L35.6747 4.74612C36.0646 4.83138 36.4308 4.94032 36.7731 5.07295C37.1155 5.20558 37.4103 5.38557 37.6575 5.61293C37.9143 5.83081 38.114 6.10554 38.2567 6.4371C38.3993 6.7592 38.4706 7.1476 38.4706 7.60232C38.4706 7.99072 38.3946 8.36492 38.2424 8.7249C38.0998 9.08489 37.8763 9.40225 37.572 9.67697C37.2676 9.9517 36.8825 10.1696 36.4165 10.3306C35.9505 10.4917 35.4037 10.5722 34.7761 10.5722Z" fill="black"/>
<path d="M19.1838 24.2445L18.1425 21.3315H14.0057L12.9643 24.2445H11.5664L15.4036 14.1555H16.7445L20.5817 24.2445H19.1838ZM14.4051 20.1947H17.7431L16.3308 16.2585C16.2833 16.1449 16.2405 16.0264 16.2025 15.9033C16.1739 15.7801 16.1359 15.6428 16.0883 15.4912H16.0598C16.0123 15.6428 15.9695 15.7801 15.9314 15.9033C15.9029 16.0264 15.8649 16.1449 15.8173 16.2585L14.4051 20.1947Z" fill="black"/>
<path d="M28.9073 24.2445L27.8659 21.3315H23.7291L22.6878 24.2445H21.2899L25.1271 14.1555H26.468L30.3052 24.2445H28.9073ZM24.1286 20.1947H27.4665L26.0543 16.2585C26.0068 16.1449 25.964 16.0264 25.9259 15.9033C25.8974 15.7801 25.8594 15.6428 25.8118 15.4912H25.7833C25.7357 15.6428 25.6929 15.7801 25.6549 15.9033C25.6264 16.0264 25.5883 16.1449 25.5408 16.2585L24.1286 20.1947Z" fill="black"/>
<path d="M35.3054 38.4C34.6587 38.4 34.0881 38.3195 33.5936 38.1584C33.1086 37.9879 32.6997 37.7606 32.3669 37.4764C32.034 37.1827 31.7725 36.8416 31.5823 36.4532C31.4016 36.0554 31.2875 35.6243 31.2399 35.1601L32.6094 34.9612C32.6569 35.2738 32.7425 35.5722 32.8661 35.8564C32.9898 36.1311 33.1609 36.3775 33.3797 36.5953C33.5984 36.8037 33.8694 36.9743 34.1928 37.1069C34.5161 37.23 34.9012 37.2916 35.3482 37.2916C35.624 37.2916 35.895 37.2632 36.1613 37.2064C36.4276 37.1401 36.6653 37.0406 36.8745 36.908C37.0933 36.7659 37.2692 36.5859 37.4023 36.368C37.5355 36.1501 37.602 35.8801 37.602 35.558C37.602 35.2549 37.5545 35.0038 37.4594 34.8049C37.3738 34.5965 37.2454 34.426 37.0742 34.2933C36.9126 34.1512 36.7129 34.0375 36.4751 33.9523C36.2374 33.867 35.9711 33.796 35.6763 33.7391L34.207 33.4407C33.8456 33.3649 33.508 33.2607 33.1942 33.1281C32.8899 32.986 32.6236 32.806 32.3954 32.5881C32.1672 32.3702 31.9865 32.105 31.8533 31.7924C31.7297 31.4703 31.6679 31.0914 31.6679 30.6556C31.6679 30.2293 31.7487 29.8456 31.9104 29.5046C32.0816 29.1541 32.3193 28.8557 32.6236 28.6093C32.9279 28.363 33.2941 28.1736 33.722 28.041C34.1595 27.8989 34.6492 27.8278 35.1913 27.8278C35.6953 27.8278 36.1613 27.8846 36.5892 27.9983C37.0267 28.112 37.4119 28.2873 37.7447 28.5241C38.0775 28.7609 38.3486 29.0593 38.5578 29.4193C38.767 29.7793 38.8954 30.2056 38.9429 30.6982L37.5878 30.9824C37.5022 30.3003 37.2644 29.784 36.8745 29.4335C36.4846 29.0735 35.914 28.8935 35.1628 28.8935C34.5351 28.8935 34.0263 29.0404 33.6364 29.3341C33.256 29.6183 33.0658 30.0161 33.0658 30.5277C33.0658 31.0203 33.199 31.404 33.4653 31.6787C33.7315 31.9439 34.15 32.1382 34.7206 32.2613L36.2041 32.5739C36.594 32.6592 36.9601 32.7681 37.3025 32.9008C37.6448 33.0334 37.9396 33.2134 38.1869 33.4407C38.4437 33.6586 38.6434 33.9333 38.786 34.2649C38.9287 34.587 39 34.9754 39 35.4301C39 35.8185 38.9239 36.1927 38.7718 36.5527C38.6291 36.9127 38.4056 37.23 38.1013 37.5048C37.797 37.7795 37.4118 37.9974 36.9459 38.1584C36.4799 38.3195 35.9331 38.4 35.3054 38.4Z" fill="black"/>
</svg>
